<?xml version="1.0" encoding="utf-8"?>
<!-- Generator: Adobe Illustrator 23.0.2, SVG Export Plug-In . SVG Version: 6.00 Build 0)  -->
<svg version="1.1" id="Layer_1" xmlns="http://www.w3.org/2000/svg" xmlns:xlink="http://www.w3.org/1999/xlink" x="0px" y="0px"
	 viewBox="0 0 1920 1080" style="enable-background:new 0 0 1920 1080;" xml:space="preserve">
<style type="text/css">
	.st0{fill:url(#SVGID_1_);}
	.st1{display:none;}
	.st2{display:inline;fill:#542A5C;}
	.st3{display:inline;fill:#633168;}
	.st4{display:inline;fill:#713874;}
	.st5{display:inline;fill:#803F80;}
	.st6{opacity:0.4;}
	.st7{opacity:0.722;fill-rule:evenodd;clip-rule:evenodd;fill:#FFFFFF;fill-opacity:0.66;enable-background:new    ;}
	.st8{fill-rule:evenodd;clip-rule:evenodd;fill:#FFFFFF;fill-opacity:0.66;}
	.st9{opacity:0.722;fill-rule:evenodd;clip-rule:evenodd;fill:#FFFFFF;fill-opacity:0.56;enable-background:new    ;}
	.st10{opacity:0.584;fill-rule:evenodd;clip-rule:evenodd;fill:#FFFFFF;fill-opacity:0.66;enable-background:new    ;}
	.st11{fill:#365B58;}
	.st12{fill:#368084;}
	.st13{opacity:0.36;fill:#19F2EC;}
	.st14{fill:#56D6D3;}
	.st15{fill:#585268;}
	.st16{fill:#36DDD9;}
	.st17{fill:#19F2EC;}
	.st18{fill:#276868;}
	.st19{fill:#4D7C7A;}
	.st20{fill:#50CCC6;}
	.st21{fill:#B3F4F1;}
	.st22{fill:#F5FFFE;}
	.st23{fill:#2C514E;}
	.st24{fill:#E4EAA0;}
	.st25{opacity:0.68;fill:#CC7A27;}
	.st26{fill:#937B2E;}
	.st27{opacity:0.61;fill:#FCFCCA;}
	.st28{fill:#B21B40;}
	.st29{opacity:0.75;fill:#B21B40;}
	.st30{fill:#750D2B;}
	.st31{fill:#440A1D;}
	.st32{fill:#F43131;}
	.st33{fill:url(#SVGID_8_);}
	.st34{fill:#00D1C0;}
	.st35{fill:#EA64A1;}
	.st36{fill:#FED893;}
	.st37{fill:#00698C;}
	.st38{fill:#005078;}
	.st39{fill:#0089A4;}
</style>
<g>
	<linearGradient id="SVGID_1_" gradientUnits="userSpaceOnUse" x1="470.8723" y1="1390.7299" x2="1445.1277" y2="-296.7299">
		<stop  offset="0" style="stop-color:#000000"/>
		<stop  offset="1" style="stop-color:#434343"/>
	</linearGradient>
	<rect x="-14.5" y="-16.5" class="st0" width="1945" height="1127"/>
	<path d="M1930-16v1126H-14V-16H1930 M1931-17H-15v1128h1946V-17L1931-17z"/>
</g>
<g class="st1">
	<rect x="-113" y="-93.1" class="st2" width="2106" height="1316.3"/>
	<polygon class="st3" points="145,100.1 1111.1,64.3 1735.2,82.9 1769.4,609.6 1713.1,1080 863,1077 153.4,1041.8 	"/>
	<polygon class="st4" points="403,293.3 1054.7,221.8 1477.5,258.9 1545.8,630 1433.1,936.9 874.5,930.8 419.8,860.4 	"/>
	<polygon class="st5" points="998.4,379.2 661,486.5 686.3,679 886,784.7 1153.2,793.8 1322.3,650.5 1219.7,434.9 	"/>
</g>
<g transform="translate(-142)" class="st6">
	<circle class="st7" cx="378.9" cy="402.6" r="4.8"/>
	<circle class="st7" cx="315.1" cy="276.3" r="3.4"/>
	<circle class="st8" cx="489.6" cy="467.1" r="6.8"/>
	<circle class="st7" cx="145.3" cy="500.4" r="4.8"/>
	<circle class="st8" cx="305.6" cy="307.5" r="6.1"/>
	<circle class="st7" cx="2057.9" cy="205" r="4.1"/>
	<circle class="st9" cx="827.7" cy="970.9" r="6.8"/>
	<circle class="st9" cx="810.7" cy="929.5" r="4.8"/>
	<circle class="st9" cx="829" cy="926.1" r="2.7"/>
	<circle class="st7" cx="528.9" cy="463" r="4.1"/>
	<circle class="st7" cx="617.9" cy="606.3" r="4.8"/>
	<circle class="st8" cx="1897.7" cy="335.4" r="4.1"/>
	<circle class="st8" cx="1961.8" cy="249.9" r="6.8"/>
	<circle class="st10" cx="1889.3" cy="270.7" r="3.4"/>
	<circle class="st10" cx="133.8" cy="200.9" r="6.8"/>
	<circle class="st10" cx="1998.2" cy="327.2" r="8.1"/>
	<circle class="st10" cx="1705.9" cy="609.8" r="4.1"/>
	<circle class="st10" cx="1812.9" cy="447.1" r="4.8"/>
	<circle class="st10" cx="1928.2" cy="423" r="6.1"/>
	<circle class="st10" cx="1592.2" cy="423.6" r="4.1"/>
	<circle class="st10" cx="1039.4" cy="503.8" r="4.1"/>
	<circle class="st10" cx="2049.8" cy="101.8" r="4.1"/>
	<circle class="st10" cx="1761.7" cy="738.5" r="4.8"/>
</g>
<g>
	<path d="M1607.5,286.4c0,0.3-0.3,0.6-0.6,0.6s-0.6-0.3-0.6-0.6s0.3-0.6,0.6-0.6S1607.5,286.1,1607.5,286.4z"/>
	<path d="M1609.5,308.9c0,0.3-0.3,0.6-0.6,0.6s-0.6-0.3-0.6-0.6c0-0.3,0.3-0.6,0.6-0.6S1609.5,308.6,1609.5,308.9z"/>
	<path d="M1620.2,307.1c0,0.4-0.3,0.7-0.7,0.7c-0.4,0-0.7-0.3-0.7-0.7c0-0.4,0.3-0.7,0.7-0.7
		C1619.9,306.4,1620.2,306.7,1620.2,307.1z"/>
	<g>
		<path class="st11" d="M1591.2,130.6c0.4-1.8-1-2.4-1.9-0.2c-19.8,52.2-18.4,48.5-18.6,49.1c-1.7,6.7,2.8,6.6,4.7,1.4
			C1575.5,180.7,1591,131.5,1591.2,130.6z"/>
		<g>
			<path class="st12" d="M1620.8,275.5c-5.3,25.8-86.5,15.7-129.5-19.1c-10.8-8.8-23-23.1-14.3-34.1c1.9-2.4,2.8-2.8,18.9-14.2
				c9.8-23.3,33.4-36.9,58.4-36c5,0.2,10.1,0.9,15.2,2.3c2.5,0.7,5,1.5,7.5,2.5c30.3,12.3,45.9,43.3,38,72.1
				C1620.7,267.8,1622.1,270.7,1620.8,275.5z"/>
			<path class="st12" d="M1620.8,275.5c-4.8,23-70,17.3-114.1-8.5c0,0,0,0,0,0c20.9-0.9,36.8-7.3,48.4-16.4
				c26.9-21,31.3-56.5,21.9-73.5c30.3,12.3,45.9,43.3,38,72.1C1620.7,267.8,1622.1,270.7,1620.8,275.5z"/>
		</g>
		<path class="st13" d="M1569.5,174.5l-14.4,76.1c-1.4,7.4,3.5-18.3-6.4,33.7c-15-4.3-28.4-9.3-42.1-17.3c0,0,0,0,0,0
			c-7.6-4.5-15.9-10.3-22-16.6l69.6-78.3C1559.4,172.3,1564.5,173.1,1569.5,174.5z"/>
		<path class="st14" d="M1611.1,266.9c-70.1-43.5-185.1-64.4-197.8-34.5c0,0.1-0.1,0.2-0.1,0.3l-6,15L1645,329
			c0,0,5.6-13.9,5.7-14.2C1655.7,298.6,1629.1,278.1,1611.1,266.9z"/>
		<path class="st12" d="M1646.5,324.5c-0.2,0.7-1.5,4.5-1.5,4.5c-12.6,32.1-131.2,8.4-198.8-34.1c-0.3-0.2-0.6-0.3-0.8-0.5
			c-14.7-9.3-42.9-29.9-38.1-46.6c0.1-0.3,1.6-4.7,1.9-5.6c2.2-5.1,7.3-8.4,12.4-10.2c19.7-7.3,54-2.5,74.5,1.8
			C1577.3,250.7,1654.9,297.7,1646.5,324.5z"/>
		<path d="M1598.2,314.1l-0.2,0.8l40.7,12.2l-27.7,10.4l-17.6-17.9l-0.6,0.6l10.9,11.1l-15.7,2.5l-1.8-7l-25.1-2.7l0.2-4.1l-0.8,0
			l-0.7,12.3l-16.8-3.2l1.9-7l-11.7-2.6l-3.9,6.3l-9.9-3.6l5.4-10.3l-0.7-0.4l-3.2,6l-34-13.6l4.5-3.6l-0.5-0.6l-11.3,9.1
			l-29.2-15.4l17.8-6.8l-0.3-0.7l-7.4,2.8l-3.6-5l-6.8,2l-8.1-13l12.8-1l-0.1-0.8l-26.8,2.2l-0.6-11.6h9.6l4.7-15.3l15,9.9l0.4-0.7
			l-21.5-14.2l17.5-4.9l3.5,6.9h37.9l-0.9,9.9l0.8,0.1l0.4-4.8l33.5,7.7l-1.7,3.6l0.7,0.3l5.5-11.6l21.3,7.6l-2.1,4.4l19.7,9.8
			l-6.9,4.8l0.4,0.7l11.8-8.2l28,16.8l-5.7,5.8l6.2,8l7.9-1.8l4.4,8.4l-16.7,1.9l0.1,0.8l37.9-4.4c-0.2-0.2-0.4-0.5-0.6-0.7
			l-19.9,2.3l-4.8-9.2l-8,1.8l-5.5-7l6-6.1l-28.2-17.3l4.7-3.3c-0.3-0.1-0.6-0.3-0.8-0.4l-9.6,6.6l-19.4-9.7l2.1-4.5l-22-7.9
			l1.6-3.5c-0.3-0.1-0.5-0.2-0.8-0.2l-5.4,11.4l-33.8-7.7l1.3-13.7c-0.3-0.1-0.5-0.1-0.8-0.2l-0.8,8.8h-37.4l-3.6-7.1l-18.8,5.2
			l-13.1-8.6c-0.3,0.1-0.6,0.2-0.9,0.4l20.3,13.4l-4.6,14.9h-9.8l0.7,12.5l-8.4,0.7c0.2,0.2,0.5,0.5,0.7,0.7l21.7-1.7l8.7,13.8
			l6.8-2l3.1,4.3l-14.5,5.6c0.3,0.2,0.6,0.4,0.8,0.5l3.3-1.3l29.5,15.5l-2.6,2.1c0.3,0.1,0.5,0.3,0.8,0.4l9.1-7.3l34.4,13.8
			l-4.6,8.8c0.3,0.1,0.5,0.2,0.8,0.3l2.3-4.4l10.6,3.9l3.9-6.4l10.3,2.3l-1.9,7l17.7,3.3l0-0.2l-0.3,5.9c0.3,0.1,0.5,0.1,0.8,0.2
			l0.8-14l24.6,2.6l1.9,7.2l16.9-2.7l11.3,11.5c0.3,0,0.7-0.1,1-0.1l-5.1-5.2l28.3-10.6l5.1,1.5c0,0,0.1-0.2,0.3-0.8L1598.2,314.1z"
			/>
		<path d="M1440.1,274.4c0,0.4-0.3,0.7-0.7,0.7c-0.4,0-0.7-0.3-0.7-0.7c0-0.4,0.3-0.7,0.7-0.7C1439.7,273.7,1440.1,274,1440.1,274.4
			z"/>
		<path d="M1456.8,286.7c0,0.4-0.3,0.7-0.7,0.7c-0.4,0-0.7-0.3-0.7-0.7c0-0.4,0.3-0.7,0.7-0.7C1456.5,286,1456.8,286.3,1456.8,286.7
			z"/>
		<path d="M1498,236.4c0,0.3-0.3,0.6-0.6,0.6c-0.3,0-0.6-0.3-0.6-0.6c0-0.3,0.3-0.6,0.6-0.6C1497.7,235.9,1498,236.1,1498,236.4z"/>
		<circle cx="1496.8" cy="245.5" r="0.6"/>
		<circle cx="1531.6" cy="256.4" r="0.7"/>
		<circle cx="1534.3" cy="251.4" r="0.6"/>
		<path d="M1569.6,276.2c0,0.5-0.4,0.8-0.8,0.8s-0.8-0.4-0.8-0.8c0-0.5,0.4-0.8,0.8-0.8S1569.6,275.7,1569.6,276.2z"/>
		<path d="M1576.3,272.5c0,0.5-0.4,0.8-0.8,0.8s-0.8-0.4-0.8-0.8c0-0.5,0.4-0.8,0.8-0.8S1576.3,272.1,1576.3,272.5z"/>
		<circle cx="1433.6" cy="238.3" r="0.6"/>
		<path d="M1459.1,239.6c0,0.4-0.3,0.7-0.7,0.7c-0.4,0-0.7-0.3-0.7-0.7c0-0.4,0.3-0.7,0.7-0.7
			C1458.8,238.9,1459.1,239.2,1459.1,239.6z"/>
		<path d="M1466.5,239.6c0,0.4-0.3,0.7-0.7,0.7c-0.4,0-0.7-0.3-0.7-0.7c0-0.4,0.3-0.7,0.7-0.7
			C1466.1,238.9,1466.5,239.2,1466.5,239.6z"/>
		<path d="M1496.3,232.9c-15.3-3.2-53.1-9.9-75-1.8c-6.4,2.3-10.9,6.1-12.9,10.6c-9.2,21.5,17.2,41.7,37.3,53.8
			c55.2,34.7,147.2,58.3,184.9,45.9c16.5-5.4,21.3-19.8,13.6-32.9C1628.2,281.1,1562.7,246.8,1496.3,232.9z M1630.2,339.9
			c-17.3,5.7-48,3.8-84.3-5.1c-36.5-9-72.7-23.8-99.3-40.6c-19.3-11.7-45.5-31.2-36.7-51.8c5-11.7,25.7-13.5,38.4-13.5
			c34.6,0,90.8,12.7,140.4,38.4c26.8,13.9,46.6,29.2,54.1,42.1C1649.8,321.2,1645.9,334.7,1630.2,339.9z"/>
		<path class="st15" d="M1579.2,305c0.7-2.1,0.6-1.8,0.7-2c2.2-7.2-9.7-16.3-17.7-21.3c-31.4-19.4-82.8-28.8-88.4-15.6
			c-0.2,0.4-0.8,2.3-0.9,2.5c-1.6,5.4,5,12,10.6,16.2C1512.1,306.9,1573.3,320.4,1579.2,305z"/>
		<path class="st16" d="M1580.6,301.2c0,0.1,0-0.1-0.6,1.8c-5.4,13.6-65.7-0.4-94.5-21.1c-5.6-4-12.2-10.1-10.9-14.9
			c0-0.1,0.6-1.9,0.8-2.2c1.1-2.5,4.3-4,8.9-4.7c17-2.3,53.6,7,78.2,21.5c3.8,2.2,8.5,5.3,12.2,8.7
			C1578.8,293.8,1581.6,297.8,1580.6,301.2z"/>
		<path class="st17" d="M1574.7,290.1c-14,7.6-32,9.7-49.7,4.3c-19.1-5.8-33.7-18.9-40.6-34.4c17-2.3,53.6,7,78.2,21.5
			C1566.3,283.7,1571,286.8,1574.7,290.1z"/>
		<path d="M1577.1,280.1c-29.8-18.4-72.4-30.4-99.3-30.4c-12,0-22.8,1.5-25.9,12.3c-2.2,7.7,7,16.9,14.8,22.9
			c28.1,21.7,78.6,37.4,109.2,37.4c11.9,0,22.7-1.5,26-12.2c1.5-4.8-1.5-10.2-6.2-15.3C1590.5,289.1,1583.1,283.8,1577.1,280.1z
			 M1598.1,309c-2.7,8.1-11,9.3-22.2,9.3c-28.7,0-78.5-14.7-106.8-36.6c-9.4-7.3-14.6-14.4-13.4-18.6c2.3-7.1,7.9-9.4,22.1-9.4
			c28,0,69.8,12.8,97.2,29.8c7.6,4.7,13.7,9.5,17.7,13.9C1595.4,300.3,1599.3,305.2,1598.1,309z"/>
		<g>
			<g>
				<defs>
					<polygon id="SVGID_2_" points="1484.3,260 1574.7,290.1 1535.7,484 1391.8,424.1 					"/>
				</defs>
				<clipPath id="SVGID_3_">
					<use xlink:href="#SVGID_2_"  style="overflow:visible;"/>
				</clipPath>
				<g style="clip-path:url(#SVGID_3_);">
					<image style="overflow:visible;" width="216" height="239" xlink:href="26D6EFCD.png"  transform="matrix(1 0 0 1 1389 245)">
					</image>
				</g>
			</g>
		</g>
		<g>
			<path class="st18" d="M1565.3,230.9c-0.6-0.3-0.9-1-0.6-1.6c5.6-12.5,6.6-25.1,3-35.4c-1.3-3.6-3.8-8.6-8.3-11.8
				c-7.8-5.5-21.5-5.6-32.7,3.1c-8.1,6.3-11.7,15.2-16.3,24.4c-0.3,0.6-1,0.8-1.6,0.5c-0.6-0.3-0.8-1-0.5-1.6
				c4.8-9.5,8.4-18.5,17-25.2c12.1-9.4,27-9.2,35.6-3.1c4,2.9,7.2,7.3,9.2,13c3.9,10.9,2.8,24.1-3,37.2
				C1566.6,230.9,1565.9,231.1,1565.3,230.9z"/>
		</g>
		<g>
			<path class="st19" d="M1602.6,135.4c-4.5,13.1-17.7,20.5-29.5,16.4c-11.8-4-17.7-17.9-13.2-31c4.5-13.1,17.7-20.5,29.5-16.4
				C1601.1,108.4,1607.1,122.3,1602.6,135.4z"/>
			<path class="st14" d="M1598.6,134.6c-4.5,13.1-17.7,20.5-29.5,16.4c-11.8-4-17.7-17.9-13.2-31c4.5-13.1,17.7-20.5,29.5-16.4
				C1597.1,107.6,1603.1,121.5,1598.6,134.6z"/>
			<path class="st20" d="M1567.7,125.3c3.9-11.4,14.4-18.4,24.8-17.4c-2-1.9-4.5-3.3-7.2-4.3c-11.8-4-25,3.3-29.5,16.4
				c-4.5,13.1,1.4,27,13.2,31c1.5,0.5,3.1,0.9,4.7,1C1567,145.9,1564.3,135.3,1567.7,125.3z"/>
			<path class="st21" d="M1578.7,102.5L1578.7,102.5L1578.7,102.5c-9.7,0-19.2,6.9-22.8,17.5c-5.5,16,4.6,32.1,19.9,32.1
				c9.7,0,19.2-6.9,22.8-17.5C1604,118.6,1594,102.5,1578.7,102.5z M1597.1,134.1c-4.1,12.1-16.4,19.3-27.5,15.5
				c-11-3.8-16.5-16.8-12.3-29.1c4.4-12.8,17.1-19,27.5-15.5C1595.5,108.7,1601.4,121.5,1597.1,134.1z"/>
			<path class="st19" d="M1590.1,127.7c0,5.5-5.2,8.9-11.6,8.1c-6.4-0.8-11.6-4.2-11.6-8.1c0-3.9,5.2-8,11.6-8.8
				C1584.9,118.1,1590.1,122.3,1590.1,127.7z"/>
			<path class="st22" d="M1574.5,119.9c10.3-4.3,17.7,3.3,15.6,10.1c-1.4,4.7-6.6,6.5-11.5,5.8c3.8,0.3,6.7-0.7,8.6-2.3
				C1593.7,128.2,1588,115.5,1574.5,119.9z"/>
			<path class="st23" d="M1579.2,125.7l-7.5,1.5v1.6l7.5,1.1C1579.2,129.9,1581.1,128.6,1579.2,125.7z"/>
			<path class="st23" d="M1573,128.1c0,1.4-1.2,2.6-2.6,2.6c-1.4,0-2.6-1.2-2.6-2.6c0-1.4,1.2-2.6,2.6-2.6
				C1571.8,125.5,1573,126.6,1573,128.1z"/>
			<path class="st23" d="M1570.2,126.3c0,0-1.2-0.4-1.5,1c-0.3,1.4,0.7,2.4,1.6,1.7C1571.3,128.4,1571.3,126.3,1570.2,126.3z"/>
		</g>
	</g>
</g>
<g>
	<g>
		<g>
			<defs>
				<ellipse id="SVGID_4_" cx="347.8" cy="171.5" rx="56.8" ry="53.5"/>
			</defs>
			<clipPath id="SVGID_5_">
				<use xlink:href="#SVGID_4_"  style="overflow:visible;"/>
			</clipPath>
			<g style="clip-path:url(#SVGID_5_);">
				<image style="overflow:visible;" width="157" height="157" xlink:href="26D6EFCF.png"  transform="matrix(1 0 0 1 269 93)">
				</image>
			</g>
		</g>
	</g>
	<ellipse class="st24" cx="347.8" cy="171.5" rx="23.4" ry="22.1"/>
	<ellipse class="st24" cx="347.8" cy="171.5" rx="23.4" ry="22.1"/>
	<path class="st25" d="M353.1,188.6c-12.9,0-23.4-9.9-23.4-22.1c0-4.9,1.7-9.5,4.6-13.2c-6,4-10,10.6-10,18.1
		c0,12.2,10.5,22.1,23.4,22.1c7.7,0,14.5-3.5,18.8-8.9C362.8,187.2,358.1,188.6,353.1,188.6z"/>
	<path class="st26" d="M343.7,161.6c-3.1-1.7-3.4-4.1-2-5.9c2-2.6,7.5-3.6,11-1.4C359.4,158.4,351.4,165.7,343.7,161.6z M348.2,154
		c-6.8,0.1-8.9,5-4.3,7.3c1.3,0.6,2.9,0.8,4.3,0.8C357.9,161.6,356.9,154,348.2,154z"/>
	<path class="st26" d="M340,177.2c-0.3,1.8-1.8,3-3.8,2.9c-4-0.3-9.4-5.7-8.5-10.5c0.6-3.2,4.3-4.5,8.2-0.9
		C338.1,170.8,340.6,174.3,340,177.2z M333.8,167.9c-5.5-2-6.8,3.3-3.3,8.3c1.4,1.9,3.5,3.5,5.8,3.4
		C341.3,179.5,340.2,170.2,333.8,167.9z"/>
	<path class="st26" d="M357.6,179.8c-2.2-0.1-4.3-2.1-4.5-4.6c-0.3-4.1,5.1-6.4,7.7-3.2C363.2,174.8,361.6,180,357.6,179.8z
		 M361.4,173.6c-1.1-2.2-4.5-3-6.5-1.1c-2.6,2.5-1.1,6.8,2.7,6.6c1-0.1,2-0.4,2.8-1.1C361.8,176.9,362.2,175.1,361.4,173.6z"/>
	<path class="st26" d="M355.7,190.9c-0.7,0.5-2,0.9-2.9,1.1c-1.3,0.4-2.7,0.5-4.1,0.4c-1.5-0.1-6.4-0.7-7.5-1.8
		c-0.4-0.4-0.4-0.8,0-1.2c1.2-1.5,5.6-1.9,7.5-1.9c2.1,0,4,0.3,6.1,1.2C356.1,189.3,356.9,190,355.7,190.9z M355.6,189.3
		c-0.8-0.5-1.9-0.6-2.9-0.7c-2.7-0.2-8.4-0.4-10.8,0.9c-0.3,0.1-0.5,0.3-0.5,0.5c0,0.2,0.2,0.4,0.4,0.6c1.6,1.2,4.8,1.1,6.8,1
		c3.4-0.1,5.6-0.2,6.9-0.9C356.3,190.3,356.4,189.8,355.6,189.3z"/>
	<path class="st26" d="M365.1,168c-2.3,1.5-4.7-0.9-4.9-4c-0.2-2.6,1.5-4.5,3.4-4.5c1.1,0,2,0.6,2.6,1.7
		C367.1,162.9,367,166.7,365.1,168z M365.6,161.4c-0.6-0.6-1.3-1.1-2.1-1.1c-2.4,0-3.8,4.1-2.2,6.2c1,1.4,2.9,1.6,4.4-0.1
		C367,165,366.9,162.9,365.6,161.4z"/>
	<path class="st27" d="M355.2,182.9c-6-0.7-18-3.1-18.9-12.4c-0.7-7.4,2.1-12.7,3.3-14.6c0,0,0.3-0.5,0.9-0.7
		c17-6.4,24.4,5.9,27.1,13.9C370.3,176.9,361.4,183.7,355.2,182.9z"/>
</g>
<g>
	<g>
		<g>
			<defs>
				<ellipse id="SVGID_6_" cx="209.8" cy="857.5" rx="100.2" ry="94.5"/>
			</defs>
			<clipPath id="SVGID_7_">
				<use xlink:href="#SVGID_6_"  style="overflow:visible;"/>
			</clipPath>
			<g style="clip-path:url(#SVGID_7_);">
				<image style="overflow:visible;" width="276" height="277" xlink:href="26D6EFCA.png"  transform="matrix(1 0 0 1 72 719)">
				</image>
			</g>
		</g>
	</g>
	<path class="st28" d="M244,857.6c0,17.8-15.3,32.2-34.2,32.2s-34.2-14.4-34.2-32.2c0-17.8,15.3-32.2,34.2-32.2S244,839.7,244,857.6
		z"/>
	<path class="st29" d="M240.8,851.6c0,13.4-11.5,24.2-25.7,24.2c-14.2,0-25.7-10.8-25.7-24.2c0-13.4,11.5-24.2,25.7-24.2
		C229.3,827.4,240.8,838.2,240.8,851.6z"/>
	<ellipse class="st30" cx="210.3" cy="837.8" rx="10.2" ry="6.5"/>
	<path class="st30" d="M194.8,856.2c3.7,4.6,4.3,10.3,1.4,12.6c-2.9,2.3-8.3,0.5-12-4.2c-3.7-4.6-4.3-10.3-1.4-12.6
		C185.7,849.7,191.1,851.6,194.8,856.2z"/>
	<path class="st30" d="M230.3,863c0,3.4-2.8,6.2-6.2,6.2s-6.2-2.8-6.2-6.2c0-3.4,2.8-6.2,6.2-6.2S230.3,859.6,230.3,863z"/>
	<path class="st30" d="M222.1,884.7c0,1.6-4.9,3-11,3c-6.1,0-11-1.3-11-3c0-1.6,4.9-3,11-3C217.1,881.7,222.1,883.1,222.1,884.7z"/>
	<path class="st30" d="M237.4,846.6c0,3.3-2.1,5.9-4.6,5.9c-2.5,0-4.6-2.7-4.6-5.9c0-3.3,2.1-5.9,4.6-5.9
		C235.3,840.7,237.4,843.3,237.4,846.6z"/>
	<g>
		<polygon class="st28" points="159,826.7 154.3,831.6 155.8,836.8 161.2,836.8 164.9,830.3 		"/>
		<path class="st30" d="M154.7,840.1c0-0.2-0.4-8.5-0.4-8.5l1.5,5.2h5.4l3.7-6.4l0.3,6.4l-3.5,5.2l-4.7,0.3L154.7,840.1z"/>
		<polygon class="st31" points="157,842.3 155.8,836.8 161.2,836.8 161.7,842 		"/>
		<polygon class="st32" points="159,828.6 163.4,830.3 161.2,835.2 161.2,831.7 159.9,831.7 160.1,830.1 		"/>
	</g>
	<g>
		<path class="st28" d="M163.5,862.3c-2.6,1.3-5,3.3-7.1,5.8c-0.1,3.1,0.4,6,1.3,8.8c1.8-0.3,3.6-0.5,5.3-0.8c0.8-3,2.3-5.4,4.1-7.3
			C165.6,867,164.3,864.8,163.5,862.3z"/>
		<path class="st30" d="M158.1,882.6c-0.1-0.1-1.5-3.7-1.9-7.3c-0.5-3.6,0.2-7.3,0.2-7.3c-0.1,3.1,0.4,6,1.3,8.8
			c1.8-0.3,3.6-0.5,5.3-0.8c0.8-3,2.3-5.4,4.1-7.3c-0.5,2.2-0.6,4.5-0.1,6.7c-0.9,2-1.4,4.3-1.3,6.8c-1.3,0.9-2.6,1.7-3.9,2.7
			C160.5,884.3,159.3,883.6,158.1,882.6z"/>
		<path class="st31" d="M161.8,885c-1.8-2.4-3.2-5.1-4.1-8.1c1.8-0.3,3.6-0.5,5.3-0.8c0.5,2.2,1.4,4.3,2.6,6.2
			C164.4,883.2,163.1,884.1,161.8,885z"/>
		<path class="st32" d="M162.3,864.9c1,1.3,2.2,2.5,3.4,3.5c-1.2,1.6-2.2,3.5-2.8,5.7c-0.1-1.5,0-3,0.3-4.5
			c-0.4-0.1-0.8-0.2-1.3-0.2c0.2-0.7,0.4-1.5,0.7-2.2C162.5,866.4,162.4,865.6,162.3,864.9z"/>
	</g>
	<g>
		<path class="st28" d="M142.8,850.4c-0.9,1.5-1.5,3.3-1.8,5.2c0.9,1.6,2.1,3,3.4,4.1c0.8-0.7,1.7-1.4,2.5-2.1
			c-0.5-1.8-0.5-3.5-0.2-5C145.4,852.1,144.1,851.4,142.8,850.4z"/>
		<path class="st30" d="M146.5,862.5c-0.1,0-1.9-1.4-3.2-3.1c-1.4-1.7-2.2-3.8-2.2-3.8c0.9,1.6,2.1,3,3.4,4.1
			c0.8-0.7,1.7-1.4,2.5-2.1c-0.5-1.8-0.5-3.5-0.2-5c0.4,1.3,1.1,2.5,2,3.5c0.2,1.3,0.6,2.6,1.5,3.9c-0.4,0.9-0.8,1.7-1.2,2.6
			C148.3,862.6,147.4,862.6,146.5,862.5z"/>
		<path class="st31" d="M149.1,862.5c-1.7-0.6-3.3-1.6-4.6-2.9c0.8-0.7,1.7-1.4,2.5-2.1c1,1,2.1,1.8,3.3,2.4
			C149.9,860.8,149.5,861.7,149.1,862.5z"/>
		<path class="st32" d="M143.1,852.1c1,0.3,1.9,0.6,2.9,0.7c-0.1,1.2,0,2.5,0.3,3.8c-0.5-0.7-0.9-1.5-1.3-2.4
			c-0.2,0.1-0.5,0.2-0.7,0.3c-0.1-0.4-0.2-0.9-0.3-1.4C143.6,852.8,143.3,852.5,143.1,852.1z"/>
	</g>
	<g>
		<path class="st28" d="M236.5,818.7c-0.1-1.3,0.7-3.7-1.5-5.5c-2.1-0.7-4.4-0.7-6.6-0.6c-0.5,0.5-0.8,2.4-0.9,4.1
			c2.7,1.5,4.9,3.6,4.6,3.2C233.9,820,236.2,819.3,236.5,818.7z"/>
		<path class="st30" d="M225.2,812.6c0.1-0.1,2.6-0.1,4.7-0.1c2.3-0.3,5.3,0.6,5.2,0.7c-2.1-0.7-4.4-0.7-6.6-0.6
			c-0.5,0.5-0.8,2.4-0.9,4.1c2.7,1.5,4.9,3.6,4.6,3.2c-0.8,0.1-2.7-0.1-4.4-0.2c-1.6-0.6-3.8-1.8-4.3-2.4c-0.2-1.1-0.1-2.1,0-2.8
			C223.4,813.7,224,812.9,225.2,812.6z"/>
		<path class="st31" d="M223.5,814.5c0-1.3,2.8-1.9,5-2c-0.5,0.5-0.8,2.4-0.9,4.1c-2.2,0-3.8,0.3-4,0.7
			C223.3,816.3,223.4,815.3,223.5,814.5z"/>
		<path class="st32" d="M236.3,817.9c-0.6,0.7-1.8,1.5-3.1,1.8c-0.2-0.4-1.7-1.6-3.7-2.8c1.5,0.3,2.9,0.7,4,1.2
			c0.2-0.3,0.4-0.7,0.6-1.1c0.5,0.3,0.9,0.6,1.2,0.9C235.7,818,236.1,818,236.3,817.9z"/>
	</g>
	<g>
		<path class="st28" d="M196,903.1c-0.1-1.3,0.7-3.7-1.5-5.5c-2.1-0.7-4.4-0.7-6.6-0.6c-0.5,0.5-0.8,2.4-0.9,4.1
			c2.7,1.5,4.9,3.6,4.6,3.2C193.4,904.4,195.7,903.6,196,903.1z"/>
		<path class="st30" d="M184.7,896.9c0.1-0.1,2.6-0.1,4.7-0.1c2.3-0.3,5.3,0.6,5.2,0.7c-2.1-0.7-4.4-0.7-6.6-0.6
			c-0.5,0.5-0.8,2.4-0.9,4.1c2.7,1.5,4.9,3.6,4.6,3.2c-0.8,0.1-2.7-0.1-4.4-0.2c-1.6-0.6-3.8-1.8-4.3-2.4c-0.2-1.1-0.1-2.1,0-2.8
			C182.9,898.1,183.6,897.2,184.7,896.9z"/>
		<path class="st31" d="M183,898.9c0-1.3,2.8-1.9,5-2c-0.5,0.5-0.8,2.4-0.9,4.1c-2.2,0-3.8,0.3-4,0.7
			C182.8,900.6,182.9,899.7,183,898.9z"/>
		<path class="st32" d="M195.8,902.3c-0.6,0.7-1.8,1.5-3.1,1.8c-0.2-0.4-1.7-1.6-3.7-2.8c1.5,0.3,2.9,0.7,4,1.2
			c0.2-0.3,0.4-0.7,0.6-1.1c0.5,0.3,0.9,0.6,1.2,0.9C195.2,902.4,195.6,902.3,195.8,902.3z"/>
	</g>
	<g>
		<path class="st28" d="M259.3,880.9c-1.8,0.3-2.1-5-4.4-2.7c-1.2,2.5-1.9,4.6-2.3,6.8c0.9,0.7,2,0.7,3.2,0.6
			c1.4-1.8,2.4-0.8,4.3-2.6C259.5,882.5,259.2,881.9,259.3,880.9z"/>
		<path class="st30" d="M251.1,888.2c0.1-0.3,0.4-3,1.2-4.8c0.8-2.1,2.6-5.4,2.6-5.2c-1.2,2.5-1.9,4.6-2.3,6.8
			c0.9,0.7,2,0.7,3.2,0.6c1.4-1.8,2.4-0.8,4.3-2.6c-1.1,1.6-1.6,2-1.9,2.9c-0.9,0.2-1.8,1.1-2.5,2.5c-1.2,1-2.6,3-3.8,3.8
			C251.3,891.9,251.1,890.3,251.1,888.2z"/>
		<path class="st31" d="M251.9,892.3c-0.2-2,0.2-5.1,0.7-7.3c0.9,0.7,2,0.7,3.2,0.6c-0.3,1.2-0.4,2.4-0.1,2.9
			C254.5,889.5,253,891.5,251.9,892.3z"/>
		<path class="st32" d="M258.1,881.2c0.2,1,0.5,1.7,1,2c-1.2,0.7-2,0.5-2.9,1.4c0.4-0.7,0.8-1.3,1.3-1.6c-0.2-0.2-0.4-0.5-0.5-0.8
			c0.3-0.1,0.5-0.2,0.8-0.2C257.9,881.8,258,881.5,258.1,881.2z"/>
	</g>
</g>
<g>
	
		<radialGradient id="SVGID_8_" cx="1067.5714" cy="112.2923" r="27.4636" fx="1063.3619" fy="112.1907" gradientUnits="userSpaceOnUse">
		<stop  offset="0" style="stop-color:#15C7B6"/>
		<stop  offset="1" style="stop-color:#0089A4"/>
	</radialGradient>
	<path class="st33" d="M1086.3,112.6c0.7,0.7,1.4,2.3,1.4,2.3l-0.4,3.4l0.6,2.4l-0.3,1.7c0,0,0.4,1.3,0.6,1.9
		c-0.3,1.2-0.8,2.4-1.1,3.5c0.7,0.8,1.2,1.9,1.6,2.9c-0.7,4.4-3.3,8.6-7,10.9c-1.5-0.2-2.9-0.1-4.4,0.2c-2.1,2.3-9.5,5.7-13.2,6.1
		c-0.4,0.6-0.7,1.1-1.1,1.7c-2.3,0-4.5-0.3-6.7-1c-0.5-0.9-0.8-1.8-1.1-2.8c-1.6,0.2-3,0.6-4.4,1.2c-2.7-0.9-6.6-5.1-6.6-5.1
		s-0.6-3.6-1.3-5.3c-1-0.5-2.5-2.2-2.5-2.2s-0.8-2.1-1-3.3c-0.6-0.4-0.9-0.7-1.5-1.1c-0.8-2.1-1.2-4.4-1.2-6.6
		c-0.8-0.7-1.6-1.3-2.3-2.1c-0.8-4.4,3.2-12.7,3.2-12.7s3-1.9,4.7-2.4c0.8-1.9,3.4-5.2,3.4-5.2s0.4-1.8,0.6-2.7c2.9-1.9,6-3.3,9.4-4
		c0.9,0.6,1.7,1.3,2.5,2c4.6-0.1,9.2,0.5,13.6,1.7c0.7-0.5,1.3-1,2.1-1.3c2.5,0.7,4.8,1.9,6.8,3.7c0,0.7-0.1,1.4-0.2,2.1
		C1083.2,105.3,1085.7,108.8,1086.3,112.6z"/>
	<path class="st34" d="M1054.6,97.5c-0.9-0.4-1.9-0.8-2.8-1.3c1.2-0.6,2.4-1.1,3.7-1.4c0.9,0.6,1.6,1.3,2.2,2.1
		c4.7-0.1,9.5,0.5,14.1,1.8c0.7-0.5,1.5-1,2.2-1.5c0.5,0.1,1,0.2,1.5,0.4c-1.1,0.1-2.1,0.6-2.9,1.3c0,0,0.1,0,0.1,0
		c1.5,0.6,3,1.4,4.4,2.3c2.1,1.3,4.1,2.7,5.6,4.6c1.6,2,2.6,4.4,2.9,6.9c0.7,0.6,1.3,1.2,1.7,2c-0.1,0.7-0.2,1.4-0.2,2.1
		c-0.5-0.1-1-0.2-1.5-0.2c0,1-0.2,2.1-0.3,3.1c0.5-5-1.5-10.2-5-13.7c-3.5-3.5-8.5-6-13.5-5.4c0-0.3,0-0.6,0-0.9
		c-3.2-0.4-6.6-0.1-9.5,1.2c0.1,0.2,0.1,0.4,0.2,0.6c-2.9,1.3-6.3,2.7-8.9,4.6c-0.2-0.3-0.7-0.4-1-0.4c-2.3,1.7-4.2,5.2-5.5,7.7
		c0-3.4,2.1-7.3,4.5-9.8C1048.7,101.1,1051.5,99,1054.6,97.5z M1041.8,107.7c-1.4,0.3-2.7,0.9-3.9,1.5c-0.5,1.4-1,2.7-1.5,4.1
		c0.7-0.1,1.2-0.2,1.9,0C1039.2,111.5,1040.4,109.3,1041.8,107.7z M1086.9,128.6c-0.3,0.5-0.5,1-0.8,1.5c0.7,0.5,1.3,1,1.9,1.6
		c0.1-0.2,0.3-0.4,0.4-0.6C1088,130.2,1087.4,129.3,1086.9,128.6z"/>
	<path class="st35" d="M1087.3,118.4l0.6,2.4l0,0l0,0l-0.2,1.8l0,0l0.7,1.9l0,0l0,0c-0.3,1.2-0.7,2.4-1.1,3.6l0-0.2
		c0.7,0.9,1.2,1.9,1.6,2.9l0,0.1l0,0.1c-0.3,2.2-1.2,4.4-2.4,6.3c-1.2,1.9-2.8,3.6-4.7,4.8l-0.1,0l-0.1,0c-1.5-0.2-2.9-0.1-4.4,0.2
		l0.1-0.1c-0.9,0.9-1.9,1.6-3,2.2c-1.1,0.6-2.2,1.2-3.3,1.7c-1.1,0.5-2.3,1-3.5,1.3c-1.2,0.4-2.4,0.7-3.6,0.9l0.2-0.1l-1.1,1.7
		l-0.1,0.1l-0.1,0c-2.3,0-4.6-0.3-6.8-1l-0.1,0l0-0.1c-0.5-0.9-0.8-1.9-1.1-2.8l0.2,0.1c-1.5,0.2-3,0.6-4.4,1.2l-0.1,0l-0.1,0
		c-0.7-0.2-1.3-0.6-1.9-1c-0.6-0.4-1.2-0.8-1.7-1.3c-1.1-0.9-2.1-1.8-3.1-2.9l0,0l0-0.1c-0.1-0.9-0.3-1.8-0.5-2.7
		c-0.2-0.9-0.4-1.8-0.7-2.6l0,0c-0.5-0.3-0.9-0.7-1.3-1c-0.4-0.4-0.8-0.8-1.2-1.2c0.4,0.4,0.8,0.8,1.2,1.1c0.4,0.4,0.9,0.7,1.3,1
		l0,0l0,0c0.3,0.9,0.6,1.7,0.8,2.6c0.2,0.9,0.4,1.8,0.6,2.7l0-0.1c0.5,0.5,1,1,1.5,1.4c0.5,0.5,1,0.9,1.6,1.4
		c0.5,0.4,1.1,0.9,1.7,1.2c0.6,0.4,1.2,0.7,1.8,0.9l-0.1,0c1.4-0.6,3-1,4.5-1.2l0.2,0l0.1,0.2c0.3,1,0.6,1.9,1.1,2.8l-0.1-0.1
		c2.1,0.7,4.4,0.9,6.7,0.9l-0.2,0.1l1.1-1.7l0.1-0.1l0.1,0c1.2-0.1,2.4-0.5,3.5-0.8c1.2-0.4,2.3-0.8,3.4-1.3c1.1-0.5,2.2-1,3.3-1.7
		c1-0.6,2.1-1.3,2.9-2.2l0.1-0.1l0.1,0c1.5-0.3,3-0.4,4.5-0.2l-0.1,0c1.9-1.2,3.4-2.8,4.6-4.7c1.2-1.9,2-4,2.3-6.1l0,0.1
		c-0.4-1-0.9-2-1.6-2.8l-0.1-0.1l0-0.1c0.4-1.2,0.8-2.3,1.2-3.5l0,0.1l-0.6-1.9l0,0l0,0l0.3-1.7l0,0L1087.3,118.4z"/>
	<path class="st36" d="M1040.3,134.7c-0.2-0.5-0.4-1.1-0.6-1.6c-0.2-0.5-0.3-1.1-0.5-1.7l0,0c-0.5-0.3-1-0.7-1.5-1l0,0l0,0
		c-0.9-2.1-1.3-4.4-1.3-6.7l0.1,0.2c-0.8-0.6-1.6-1.3-2.3-2.1l0,0l0-0.1c-0.2-1.1-0.1-2.3,0.1-3.4c0.2-1.1,0.4-2.2,0.8-3.2
		c0.3-1.1,0.7-2.1,1.1-3.1c0.4-1,0.8-2.1,1.3-3.1l0-0.1l0.1,0c0.8-0.5,1.5-0.9,2.3-1.3c0.8-0.4,1.6-0.8,2.4-1.1l-0.1,0.1
		c0.2-0.5,0.5-0.9,0.8-1.4c0.3-0.4,0.6-0.9,0.9-1.3c0.6-0.9,1.2-1.7,1.8-2.5l0,0.1l0.6-2.7l0-0.1l0.1,0c2.9-1.9,6.1-3.3,9.5-4l0.1,0
		l0.1,0c0.9,0.6,1.7,1.3,2.5,2.1l-0.2-0.1c4.6-0.1,9.2,0.5,13.7,1.8l-0.2,0c0.7-0.5,1.4-1,2.1-1.3l0.1,0l0.1,0
		c2.5,0.7,4.9,1.9,6.8,3.8l0.1,0.1l0,0.1c0,0.7-0.1,1.4-0.2,2.1l-0.1-0.2c0.7,0.7,1.4,1.4,2.1,2.1c0.6,0.8,1.3,1.5,1.8,2.4
		c1,1.7,1.8,3.6,2.1,5.5l0-0.1c0.3,0.3,0.6,0.7,0.8,1.2c0.2,0.4,0.4,0.8,0.6,1.3l0,0l0,0l-0.4,3.4l0.3-3.5l0,0
		c-0.2-0.4-0.4-0.8-0.6-1.2c-0.2-0.4-0.5-0.8-0.8-1.1l0,0l0,0c-0.3-1.9-1.1-3.7-2.2-5.4c-0.5-0.8-1.1-1.6-1.7-2.3
		c-0.6-0.7-1.3-1.4-2.1-2.1l-0.1-0.1l0-0.1c0.1-0.7,0.2-1.3,0.2-2l0.1,0.2c-1.9-1.8-4.2-3-6.7-3.7l0.1,0c-0.7,0.3-1.4,0.8-2.1,1.3
		l-0.1,0.1l-0.1,0c-4.4-1.3-9-1.8-13.5-1.7l-0.1,0l-0.1-0.1c-0.8-0.7-1.5-1.4-2.4-2l0.2,0c-3.3,0.7-6.5,2.1-9.4,4l0.1-0.1l-0.6,2.7
		l0,0l0,0c-0.6,0.8-1.2,1.7-1.8,2.5c-0.3,0.4-0.6,0.9-0.8,1.3c-0.3,0.4-0.5,0.9-0.7,1.3l0,0.1l-0.1,0c-0.8,0.3-1.6,0.7-2.4,1.1
		c-0.8,0.4-1.5,0.9-2.3,1.3l0.1-0.1c-0.5,1-0.9,2-1.3,3c-0.4,1-0.8,2.1-1.1,3.1c-0.3,1-0.6,2.1-0.7,3.2c-0.2,1.1-0.3,2.2-0.1,3.2
		l-0.1-0.1c0.7,0.8,1.5,1.4,2.3,2.1l0.1,0.1l0,0.1c0,2.2,0.3,4.5,1.1,6.6l0,0c0.5,0.4,1,0.8,1.5,1.1l0,0l0,0
		c0.1,0.6,0.2,1.1,0.4,1.7C1039.9,133.6,1040.1,134.1,1040.3,134.7z"/>
	<path class="st37" d="M1084.7,131.3c1.3-1.9,2.3-4.3,2.9-6.6c-0.3-0.1-0.5-0.4-0.7-0.7c0.2-0.8,0.3-1.7,0.5-2.5
		c-0.4-0.2-0.7-0.6-0.9-1c0.3-1.3,0.3-2.6,0.4-4c-0.2,3.4-1,6.8-2.3,9.9c0.5-1.9,1-3.8,1.4-5.8c-1.1,2.8-2.5,5.6-4.4,8
		c-1.9,2.4-4.3,4.4-7.2,5.5c-3.7,1.4-7.8,1.1-11.6,0.3c-9.4-2-17.4-8.5-23.3-16.1c0.3-3.2,1-6.5,2.1-9.4c-1.7,2.5-3,5.2-3.6,8
		c-0.7,0-1.9-0.3-2.6-0.3c-0.7,1.2-0.8,2.7-0.7,4.1c0.7,0.7,1.6,1.2,2.5,1.8c0.2,1.2,0.5,2.2,0.7,3.4c-0.1,0.1-0.3-0.1-0.4,0
		c0.2,1.3,0.5,2.5,1.1,3.6c0.3,0.1,0.5,0.2,0.8,0.3c0.5,1.5,0.9,2.8,1.4,4.3c0.9,0.8,1.8,1.4,2.7,2.2c0.5,1.8,1.6,5.2,1.6,5.2
		s3.5,3,5.4,4.3c1.4-0.4,2.8-0.8,4.2-1.2c0.4,0.2,0.7,0.3,1.1,0.4c0.6,1,1.2,1.9,1.8,2.8c1.4,0.5,2.9,0.5,4.5,0.5
		c0.4-0.4,0.6-1,0.8-1.5c5.1-0.6,10.1-2.7,14.1-6c1.7,0.1,3.4,0,5.2-0.2c2.3-2,4.4-4.8,5.5-7.7
		C1086.3,132.9,1085.3,132.1,1084.7,131.3z M1038.6,124.8c0.1-0.1,0.2-0.3,0.3-0.4c0.1,1,0.3,2,0.5,3
		C1039.1,126.5,1038.8,125.7,1038.6,124.8z"/>
	<path class="st37" d="M1049,97.6c1.4,0.3,3,0.6,4.5,0.2c-2.4,0.9-4.8,2-7,3.4c-0.1-0.8,0-1.6,0.2-2.4
		C1047.3,98.4,1048.3,97.8,1049,97.6z"/>
	<path class="st37" d="M1073.7,99.2c2.1,0.9,4.1,2,6,3.2c0.2-0.5,0.4-1,0.5-1.5c-0.8-0.8-1.8-1.6-2.7-2.2c-0.1,0.3-0.4,0.5-0.7,0.6
		c-0.3,0.1-0.6,0.1-0.9,0.1C1075.3,99.4,1074.3,99.4,1073.7,99.2z"/>
	<path class="st38" d="M1038.6,118.6c-0.2,0.7-0.3,1.4-0.3,2.1c-0.9-0.4-1.8-0.9-2.7-1.2c-0.2,0.5-0.4,0.6-0.4,1.1
		c0.9,0.8,1.9,1.4,3,1.9c0.2,7.1,4.2,13.9,10.2,17.7c-0.3,0.8-0.8,1.4-1.1,2.2c1,1.2,2,2.1,3.3,2.9c1.2-0.5,2.4-1.1,3.6-1.8
		c1.1,0.6,2.3,0.9,3.5,1.3c0.2,0.8,0.3,1.6,0.5,2.4c0.8,0.1,1.5,0.4,2.3,0.5c0.5-0.6,0.9-1.4,1.4-2c5.4-0.1,10.8-2.1,14.9-5.5
		c1.6,0.1,3.3,0,4.8,0c1.3-1,2.6-2.5,3.5-3.8c-1.2-0.7-2.2-2.1-2.6-3.4c-2,2.3-4.3,4.3-6.7,6.2c-2.8,2.3-6.5,3.4-10,4.3
		c0-0.4,0-0.9,0.1-1.3c-4.6,1.2-9.7,0.3-13.7-2.3c-0.2,0.2-0.5,0.1-0.7,0.4c-4.4-2-8.2-6.1-10-10.6c-0.2,0-0.5-0.3-0.8-0.2
		C1039.7,126,1038.4,122.1,1038.6,118.6z"/>
	<path class="st39" d="M1045.6,133.6c0-1,0.1-2,0.3-2.9c0-0.2,0.1-0.5,0.3-0.6c0.2-0.1,0.4,0,0.6,0.1c1.6,0.7,3.1,1.7,4.2,3.1
		c-1.3-0.7-2.7-1.3-4.2-1.7C1046.5,132.3,1045.9,132.9,1045.6,133.6z"/>
	<path class="st39" d="M1057,140c0.8-0.6,1.7-1.2,2.7-1.2c1,0,2,0.6,2.3,1.5C1060.4,140.2,1058.6,139.9,1057,140z"/>
	<path class="st39" d="M1070.1,134c-0.8,0.5-1.4,1.2-1.9,2.1c0.2,0.5,0.8,1.1,0.8,1.1s2.9,0.1,4.2-0.4c1.2-0.4,2.2-1.4,3-2.4
		c-0.8-0.7-1.8-1.1-2.9-1.1C1072.4,133.3,1071,133.5,1070.1,134z"/>
	<path class="st38" d="M1045.1,117.8c0.5,0.7,1.1,1.4,1.8,2.1c2.9-0.1,5.8-0.7,8.4-2c0.9-1.7,2-5.6,2-5.6c0.2,0-0.5-4.1-1.4-6
		c1.9-0.8,3.7-1.6,5.5-2.6c-1.4,1.3-2.7,2.9-3.7,4.5c1.8-0.1,3.7-0.5,5.3-1.2c-1,1.1-2.1,2.3-3.1,3.4c-0.2,1-0.3,2.1-0.3,3.2
		c1.3,0.9,2.6,1.5,4.1,1.9c-1.9,0-3.9,0-5.8,0.1c-1,2-2.7,6-2.7,6s-0.5-0.9-0.7-1.2c-1.5,0.7-3.1,1.2-4.6,1.6
		c-0.3,1.5-0.7,3-0.8,4.5c-0.4-1.7-1.2-4.9-1.2-4.9S1045.9,119.1,1045.1,117.8z M1054.1,116.8c0.8-1.2,1.8-4.7,1.8-4.7
		s-0.4-4.3-2.2-5.8c-2.9,1-6.3,2.2-7.4,5.1c-0.6,1.7-0.8,3.5-0.8,5.3c0.7,0.6,1.5,1.2,2.2,1.8
		C1049.8,118.8,1054.1,116.8,1054.1,116.8z M1048.8,118.1c-0.4-0.4-0.7-0.9-0.9-1.5c1.1-1.9,2.3-3.6,3.9-5c1.2,0.3,2.3,0.8,3.4,1.4
		c-0.3,1.3-0.8,2.6-1.5,3.7C1052.2,117.4,1050.5,117.9,1048.8,118.1z M1061.1,122.7c0-0.4,0.2-0.8,0.4-1.2c0.2-0.4,0.6-0.7,0.7-1.2
		c-0.8,0.8-1.7,1.5-2.6,2.2c0.7,0.4,1.5,0.9,2.2,1.4C1061.4,123.7,1061.1,123.1,1061.1,122.7z M1060,131.4c0.4,0.7,1.2,1.3,1.9,1.8
		c-0.5-0.9-0.9-1.7-1.3-2.6c0.6-1,1.6-2.7,2-3.8c1.1-0.4,1.6-0.5,2.7-0.8c-0.9,0-1.7-0.1-2.6-0.1c-0.2-0.4-0.2-0.9-0.4-1.3
		c-0.5,1.9-1.4,3.9-2.4,5.6c-1.4,0.5-3,0.7-4.5,0.5C1056.7,131.4,1058.5,131.7,1060,131.4z M1059.4,129.6c1.2-1.4,1.9-3.3,1.9-5.1
		c-0.9-0.8-1.9-1.4-3-1.8c-0.8,0.2-1.7,0.6-2.4,1c-0.5-0.6-1-1.2-1.5-1.8c0.3,0.8,0.6,1.5,1,2.3c-0.4,0.3-0.7,0.7-0.9,1.2
		c-0.9-0.6-1.6-1.2-2.4-2c0.6,1,1.3,2,2,2.8c-0.4,0.8-0.7,1.7-0.8,2.6c-0.6,0.5-1.2,1-1.8,1.5c0.7-0.2,2.2-0.6,2.2-0.6
		S1056.7,130.5,1059.4,129.6z M1059.2,129.2c-1.4,0.3-2.8,0.5-4.2,0.5c-0.2-0.3-0.4-0.7-0.5-1.1c0.4-1,1.3-2,2.4-2.4
		c1-0.4,2.2-0.4,3.3,0.1c0.2,0.5,0.1,1.1,0,1.6C1060,128.4,1059.6,128.9,1059.2,129.2z M1051.2,134.3c-0.9-1.7-2.8-2.8-4.8-3
		c-0.4,1-0.6,2.1-0.5,3.2C1046.7,135.9,1050.5,136.1,1051.2,134.3z M1050.6,134.7c-1.1,0.7-2.5,0.8-3.7,0.2c0.1-0.4,0.3-0.9,0.7-1.2
		C1048.5,133,1049.8,134,1050.6,134.7z M1061.9,140.6c-0.7-0.6-1.6-1-2.5-1s-1.8,0.4-2.4,1c0.7,0.6,1.5,0.9,2.4,1
		C1060.3,141.6,1061.2,141.1,1061.9,140.6z M1060.7,141c-0.7,0.3-1.6,0.3-2.4,0.1C1059.1,140.8,1059.9,140.7,1060.7,141z
		 M1076.5,134.6c0,0,0.1-2.4-0.3-3.5c-1.2-0.5-2.6-1-3.9-0.5c-2,0.8-3.8,2.3-5,4.2c0.2,1,0.6,2,1.3,2.7c1.4,0,2.8,0.2,4.2-0.2
		C1074.4,136.9,1076.5,134.6,1076.5,134.6z M1069.2,137.2c-0.4-0.3-0.6-0.7-0.8-1.1c0.5-0.8,1.3-1.3,2.1-1.6c1.6-0.6,3.4-0.4,5.1,0
		c-0.8,0.9-1.7,1.9-2.8,2.5C1071.8,137.2,1070.4,137.3,1069.2,137.2z M1082.4,120.6c0.8-0.5,1.3-1.4,1.6-2.3s0.5-1.9,0.2-2.9
		c-1-3.2-3.7-5.6-6.9-6.5c-1.2,1.8-1.7,4.1-1.2,6.3s1.8,4.1,3.7,5.2C1080.5,120.9,1081.6,121.1,1082.4,120.6z M1079.6,119.9
		c-1.8-1.3-2.8-3.5-2.6-5.7c2.2,0.7,4.3,2.2,5.7,4c0.2,0.3,0.1,0.8,0,1.2c-0.1,0.4-0.4,0.7-0.7,0.8c-0.4,0.2-0.8,0.2-1.1,0.1
		C1080.4,120.3,1079.9,120.1,1079.6,119.9z M1064.6,132.6c0.5,0.5,1,0.9,1.6,1.2c0.2-0.4,0.3-0.8,0.3-1.2
		C1065.9,132.7,1065.1,132.8,1064.6,132.6z M1067.5,129.4c0.3,0.6,0.4,1.3,0.5,2c0.3-0.3,0.5-0.6,0.7-1
		C1068.4,130,1068,129.6,1067.5,129.4z M1073.7,128.8c-0.2,0.4-0.5,0.7-0.8,0.7c-0.5,0.1-0.9-0.3-1.1-0.7c-0.2-0.4-0.2-0.9-0.4-1.3
		c0,0.9,0.1,1.7,0.4,2.6c1.5-0.3,3.1-0.2,4.6,0.4c0.3-0.9,0.5-1.9,0.7-2.9c-0.2,0.6-0.6,1.1-1.1,1.6c-0.1,0.1-0.3,0.3-0.4,0.3
		c-0.2,0-0.4-0.1-0.6-0.2c-0.5-0.4-0.8-1.1-0.8-1.7C1073.9,127.9,1073.9,128.5,1073.7,128.8z M1084.1,118.5
		c-0.2,0.5-0.3,1.1-0.6,1.6c-0.3,0.5-0.7,0.9-1.2,1.2c-0.5,0.2-1.2,0.2-1.7,0.1c-1.3-0.3-2.5-1-3.3-2.1c-0.4,0.8-1.1,1.4-1.8,2
		c0.7-0.3,1.3-0.5,2-0.8c0.5,0.3,1,0.6,1.5,0.9c0.1,0.7,0,1.5-0.1,2.2c0.3-0.5,0.6-0.9,1-1.3c0.7,0,1.3,0.1,2,0.1
		c0.3,0.6,0.5,1.3,0.4,2C1083.3,122.9,1083.9,120.7,1084.1,118.5z M1075.8,110.9c0.2-0.7,0.5-1.5,0.8-2.1c-0.8-0.3-1.5-0.7-2.1-1.2
		C1075.2,108.5,1075.6,109.8,1075.8,110.9z M1075.3,113.6c0-0.5,0-1,0-1.6c-0.9,0-1.7-0.5-2.4-1
		C1073.8,111.7,1074.6,112.7,1075.3,113.6z M1068,105.1c0.5-0.5,0.9-1.1,1.1-1.8c-0.1-0.4-0.2-0.8-0.5-1.1c-1.2-0.2-2.4,0-3.5,0.4
		c-0.2,0.6-0.1,1.3,0.2,1.9C1066,104.9,1067.2,105,1068,105.1z M1068.6,103.8c-0.2,0.4-0.5,0.7-0.8,1c-0.6-0.1-1.3-0.2-1.9-0.4
		C1066.6,103.8,1067.7,103.4,1068.6,103.8z M1040.8,122.8c-0.3,1.5,0.3,3,1.4,4C1042.3,125.4,1041.8,123.8,1040.8,122.8z
		 M1049.6,136.6c0.8-0.3,1.5-0.9,1.9-1.7c-1.1,1-2.8,1.4-4.2,0.9C1048,136.3,1048.8,136.8,1049.6,136.6z M1069.7,104.3
		c0,0-0.2-1-0.4-1.5c0.1,0.3,0.1,0.9,0.1,0.9s-0.7,1.3-1.1,1.8c-1,0.1-1.9-0.1-2.8-0.4c1,0.6,2.1,0.9,3.3,0.9
		C1069.1,105.5,1069.7,104.3,1069.7,104.3z"/>
	<path class="st36" d="M1044.5,117.3c-0.1-1.4-0.1-2.8,0.1-4.2c0.2-1.4,0.7-2.8,1.6-3.9c0.9-1.1,2.2-1.9,3.5-2.4
		c0.7-0.3,1.3-0.4,2-0.6c0.7-0.2,1.4-0.3,2.1-0.4c-0.7,0.2-1.4,0.4-2,0.6c-0.7,0.2-1.3,0.4-2,0.7c-1.3,0.6-2.5,1.3-3.3,2.4
		c-0.9,1-1.4,2.4-1.6,3.7C1044.6,114.5,1044.6,115.9,1044.5,117.3z"/>
	<path class="st36" d="M1076.5,117.4c-0.6-1.3-0.9-2.9-0.8-4.4c0.1-1.5,0.7-2.9,1.3-4.3l0.1-0.1l0.2,0c0.9,0.2,1.7,0.5,2.4,0.9
		c0.8,0.4,1.5,0.9,2.1,1.5c0.6,0.6,1.1,1.3,1.5,2.1c0.4,0.8,0.7,1.6,0.8,2.4c-0.2-0.8-0.6-1.6-1-2.3c-0.4-0.7-1-1.4-1.6-2
		c-0.6-0.6-1.3-1.1-2.1-1.4c-0.7-0.4-1.5-0.7-2.4-0.9l0.2-0.1c-0.7,1.3-1.2,2.7-1.4,4.1c-0.1,0.7-0.1,1.5,0,2.2
		C1076.1,116,1076.3,116.7,1076.5,117.4z"/>
	<path class="st36" d="M1065,104.4c-0.2-0.5-0.3-1.1-0.1-1.6l0-0.1l0.1,0c0.5-0.4,1.1-0.6,1.8-0.7c0.6-0.1,1.3,0,1.9,0.2
		c-0.6,0-1.2,0-1.8,0.2c-0.6,0.1-1.1,0.4-1.7,0.6l0.1-0.1C1065,103.3,1064.9,103.8,1065,104.4z"/>
	<path class="st36" d="M1067.5,134.8c0.5-0.7,1.1-1.5,1.7-2.1c0.6-0.7,1.3-1.3,2.2-1.7c0.8-0.4,1.7-0.7,2.7-0.7
		c0.5,0,0.9,0.1,1.4,0.2c0.4,0.2,0.8,0.4,1.2,0.7c-0.4-0.2-0.8-0.4-1.2-0.5c-0.4-0.1-0.9-0.1-1.3-0.1c-0.9,0-1.7,0.3-2.5,0.7
		c-0.8,0.4-1.5,1-2.1,1.6C1068.7,133.5,1068.1,134.2,1067.5,134.8z"/>
	<path class="st36" d="M1055.8,123.2c0.9-0.8,2-1.3,3.2-1.3l0.1,0l0.1,0c0.6,0.3,1.3,0.7,1.8,1.2c0.3,0.2,0.5,0.5,0.8,0.8
		c0.2,0.3,0.5,0.5,0.7,0.8c-0.3-0.2-0.5-0.5-0.8-0.7c-0.3-0.2-0.5-0.4-0.8-0.6c-0.6-0.4-1.2-0.8-1.8-1.1l0.1,0
		C1057.9,122.3,1056.8,122.6,1055.8,123.2z"/>
	<path class="st36" d="M1054.1,124.6c0-0.3,0.1-0.5,0.3-0.7c0.2-0.2,0.3-0.3,0.6-0.4c0,0.3-0.1,0.5-0.3,0.7
		C1054.6,124.4,1054.4,124.5,1054.1,124.6z"/>
	<path class="st36" d="M1052.2,124.1c0.5,0.6,0.9,1.3,1.4,1.9l0.1,0.1l-0.1,0.1c-0.3,0.7-0.6,1.4-0.8,2.2c-0.1-0.8,0.1-1.6,0.4-2.4
		l0,0.2C1052.8,125.6,1052.4,124.9,1052.2,124.1z"/>
	<path class="st39" d="M1051.4,102.9c0.3-0.6,0.4-1.2,0.3-1.9c-1.3,0.2-2.4,1.1-3,2.3C1049.6,103.5,1050.6,103.4,1051.4,102.9z"/>
	<path class="st39" d="M1046.5,140.1c-0.1,0.6-0.3,1.1-0.5,1.6c-0.3-0.2-0.5-0.2-0.8-0.4c-0.3-1.3-0.7-2.6-1-3.9
		C1044.8,138.5,1045.6,139.4,1046.5,140.1z"/>
</g>
</svg>
