<svg xmlns="http://www.w3.org/2000/svg" width="1600" height="454" viewBox="0 0 1600 454">
    <defs>
        <linearGradient id="a" x1="50%" x2="50%" y1="65.169%" y2="0%">
            <stop offset="0%" stop-color="#FFF"/>
            <stop offset="100%" stop-color="#EDEDED"/>
        </linearGradient>
    </defs>
    <g fill="none" fill-rule="evenodd">
        <path fill="#FFF" d="M1544.382 106H1600v347.844H0V106h54.618c13.716-1.002 27.292-1.983 40.727-2.943v-8.136a46 46 0 0 1 4.672-20.199l.433-.885a46 46 0 0 0 4.671-20.198V27.186a5.136 5.136 0 0 1 9.828-2.093c1.244 2.79.792 5.517 1.122 11.18 1.232 21.127 6.51 15.25 12.421 11.642 5.91-3.608 0-28.195 3.612-37.987 3.611-9.793 42.864-7.22 51.119-7.22 8.255 0 18.711-5.388 26.396 0 4.115 2.886 5.86 20.997 5.236 54.335a46.004 46.004 0 0 0 17.096 36.655c125.795-8.22 237.242-14.307 334.34-18.262l.746-1.703c1.766-.137 3.463-.26 5.089-.373 2.249-6.907 9.69-11.978 18.523-11.978 8.561 0 15.815 4.764 18.3 11.347 1.684.02 3.443.044 5.279.07l.219.809a6999.285 6999.285 0 0 1 63.698-1.954l1.334-3.05c2.905-.223 5.695-.428 8.37-.612 3.699-11.36 15.937-19.7 30.464-19.7 14.08 0 26.011 7.835 30.099 18.661 2.768.035 5.662.073 8.68.115l.836 3.092a3913.56 3913.56 0 0 1 41.572-.23c15.924 0 32.581.11 49.97.327l2.8-21.321c-15.794-10.97-24.846-24.087-20.752-31.177 4.689-8.122 24.85-5.26 45.033 6.393 20.182 11.652 32.741 27.681 28.053 35.803-3.3 5.715-14.261 5.991-27.5 1.593l1.396 9.161c126.183 2.332 287.633 9.904 484.35 22.715 10.017-5.062 15.025-8.316 15.025-9.762V34.987a6 6 0 0 1 2.166-4.616c7.134-5.925 11.172-8.888 12.112-8.888 1.548 0 14.373-18.566 22.863-18.566s44.459-6.563 53.285 0c8.826 6.564 23.527 56.72 22.44 73.178-.576 8.721 2.049 18.845 5.527 26.435a25841.67 25841.67 0 0 1 48.114 3.47zm-662.38-91.882c-2.913 0-5.274-2.42-5.274-5.403 0-2.984 2.361-5.403 5.274-5.403s5.275 2.42 5.275 5.403c0 2.984-2.362 5.403-5.275 5.403z"/>
        <g fill="url(#a)" transform="translate(134 9)">
            <path d="M1275.951 3.73l-.387.22a17 17 0 0 0-8.61 14.786v43.955a17 17 0 0 1-5.686 12.688l-3.772 3.363a4.898 4.898 0 0 0 4.29 8.444c8.459-1.82 14.654-7.445 18.585-16.877 5.204-12.485 6.974-32.913 5.312-61.286a6.524 6.524 0 0 0-9.732-5.293zM1260.387 22.024c-5.398 0-5.056-1.071-7.277 11.167-1.48 8.16-1.48 19.429 0 33.809 8.45-29.984 10.877-44.976 7.277-44.976zM1293 7v34.003l4.216 17.506L1293 83c11.518-9.526 16.818-17.69 15.898-24.49-.823-6.087-2.902-20.475-6.237-43.165A9.764 9.764 0 0 0 1293 7zM68.941 6.34l-1.61 20.451a10 10 0 0 0 2.068 6.915L71 35.77a2.22 2.22 0 0 0 3.973-1.36V15.586a10 10 0 0 0-.516-3.169L72.29 5.93a1.721 1.721 0 0 0-3.348.41zM16.785.055H11.48a3.09 3.09 0 0 0-3.09 3.09V5.7a10 10 0 0 1-.056 1.066l-3.89 36.302a10 10 0 0 1-.201 1.188L.507 60.407a10 10 0 0 0-.257 2.254v13.46a3 3 0 0 0 5.408 1.79l4.86-6.543a10 10 0 0 0 .953-1.566l9.044-18.473a10 10 0 0 0 .91-5.87l-3.966-26.63a7.147 7.147 0 0 1 1.951-6.042 8.711 8.711 0 0 0 2.473-6.08V5.152A5.098 5.098 0 0 0 16.785.055zM41.762 2.61l-1.096 1.11a10 10 0 0 0-2.877 7.02v33.028a10 10 0 0 0 .736 3.766l3.237 7.96a2.062 2.062 0 0 0 3.972-.777V4.237a2.32 2.32 0 0 0-3.972-1.628zM586.956 39.57c11.566 3.38 19.395 7.569 23.484 12.568 4.09 4.998-5.188 7.498-27.834 7.498-5.453-6.737-6.816-11.766-4.09-15.086 2.727-3.32 5.54-4.98 8.44-4.98zM458.978 53.447c5.873 1.716 9.848 3.843 11.924 6.381 2.077 2.539-2.634 3.808-14.133 3.808-2.769-3.421-3.461-5.975-2.077-7.66 1.385-1.686 2.813-2.53 4.286-2.53zM729.687 35.32c-17.235-9.95-28.893-22.026-26.038-26.97 2.855-4.945 19.141-.887 36.376 9.063 17.235 9.95 28.892 22.026 26.037 26.97-2.855 4.945-19.14.887-36.375-9.063zm2.695 12.026h5.79v16.66l-9.192-1.61 3.402-15.05z"/>
        </g>
    </g>
</svg>
